<svg xmlns="http://www.w3.org/2000/svg" width="29" height="26" fill="none"><path fill="#37474F" d="M6.481 14.083h13.101L13.86 19.37a1.034 1.034 0 0 0 0 1.538 1.237 1.237 0 0 0 1.653 0l7.73-7.139a1.022 1.022 0 0 0 0-1.527l-7.718-7.15a1.219 1.219 0 0 0-.827-.317c-.31 0-.607.114-.826.317a1.022 1.022 0 0 0 0 1.527l5.711 5.298h-13.1c-.646 0-1.173.487-1.173 1.083s.527 1.083 1.172 1.083Z"/><mask id="a" width="19" height="18" x="5" y="4" maskUnits="userSpaceOnUse" style="mask-type:luminance"><path fill="#fff" d="M6.481 14.083h13.101L13.86 19.37a1.034 1.034 0 0 0 0 1.538 1.237 1.237 0 0 0 1.653 0l7.73-7.139a1.022 1.022 0 0 0 0-1.527l-7.718-7.15a1.219 1.219 0 0 0-.827-.317c-.31 0-.607.114-.826.317a1.022 1.022 0 0 0 0 1.527l5.711 5.298h-13.1c-.646 0-1.173.487-1.173 1.083s.527 1.083 1.172 1.083Z"/></mask></svg>