<svg xmlns="http://www.w3.org/2000/svg" width="13" height="21" fill="none"><path fill="#3C5B9A" d="M3.484 20.726h4.305v-8.622h3.88l.426-4.284H7.789V5.656c0-.594.482-1.076 1.077-1.076h3.229V.274h-3.23a5.382 5.382 0 0 0-5.381 5.382V7.82H1.33l-.426 4.284h2.579v8.622Z"/><mask id="a" width="13" height="21" x="0" y="0" maskUnits="userSpaceOnUse" style="mask-type:luminance"><path fill="#fff" d="M3.484 20.726h4.305v-8.622h3.88l.426-4.284H7.789V5.656c0-.594.482-1.076 1.077-1.076h3.229V.274h-3.23a5.382 5.382 0 0 0-5.381 5.382V7.82H1.33l-.426 4.284h2.579v8.622Z"/></mask></svg>