<svg xmlns="http://www.w3.org/2000/svg" width="76" height="76" fill="none"><rect width="76" height="76" fill="#70CE88" rx="38"/><path fill="#262626" fill-rule="evenodd" d="M43.126 22.083H30.192c-1.372 0-2.483 1.178-2.483 2.63v23.67c0 1.452 1.111 2.63 2.483 2.63H47.58c1.372 0 2.484-1.178 2.484-2.63V29.427l-6.937-7.345Zm-12.934 2.63h9.935v5.26c0 1.452 1.112 2.63 2.484 2.63h4.968v15.78H30.192v-23.67Zm12.42 5.26v-4.715l4.453 4.715H42.61Zm.363 5.645-5.331 5.645-2.848-3.015-1.756 1.86 4.604 4.874 7.087-7.505-1.756-1.86Z" clip-rule="evenodd"/></svg>