<svg xmlns="http://www.w3.org/2000/svg" width="76" height="76" fill="none"><rect width="76" height="76" fill="#FA706C" rx="38"/><path fill="#2D2D2D" d="M34.658 28.67h2.57c1.419 0 3.158.99 3.885 2.208l3.18 5.337h5.782a1.285 1.285 0 0 1 0 2.57h-5.904l-3.18 5.337c-.727 1.219-2.466 2.207-3.885 2.207h-2.57l4.496-7.544h-8.979l-1.843 3.151h-2.57l2.595-4.436v-.042l-2.57-4.394h2.57l1.843 3.151h9.076l-4.496-7.544Z"/><mask id="a" width="27" height="19" x="25" y="28" maskUnits="userSpaceOnUse" style="mask-type:luminance"><path fill="#fff" d="M34.658 28.67h2.57c1.419 0 3.158.99 3.885 2.208l3.18 5.337h5.782a1.285 1.285 0 0 1 0 2.57h-5.904l-3.18 5.337c-.727 1.219-2.466 2.207-3.885 2.207h-2.57l4.496-7.544h-8.979l-1.843 3.151h-2.57l2.595-4.436v-.042l-2.57-4.394h2.57l1.843 3.151h9.076l-4.496-7.544Z"/></mask></svg>